<svg xmlns="http://www.w3.org/2000/svg" width="50" height="50"><path style="stroke:none;fill-rule:nonzero;fill:#aed12e;fill-opacity:1" d="M29 13.25h5.59c.37 0 .566.07.676.5a4.39 4.39 0 0 0 1.363 2.059c.95.921 1.969 1.77 3.047 2.535.937.68 1.918 1.304 2.844 2a19.407 19.407 0 0 1 2.82 2.758 14.99 14.99 0 0 1 2.273 3.546c.575 1.247.91 2.586 1 3.954a16.762 16.762 0 0 1-.258 4 16.016 16.016 0 0 1-1.656 4.847A19.358 19.358 0 0 1 43.434 44a18.665 18.665 0 0 1-4.07 3.176 22.212 22.212 0 0 1-6 2.344c-2.141.468-4.344.617-6.528.44a17.544 17.544 0 0 1-4.39-.894 19.646 19.646 0 0 1-4.5-2.066 16.823 16.823 0 0 1-3.352-2.637 4.198 4.198 0 0 0-.574-.574c-.383-.273-.25-.5 0-.715l2.035-1.918c.656-.625 1.3-1.261 1.965-1.87 1.144-1.048 2.289-2.09 3.39-3.184a.36.36 0 0 1 .274-.118c.101 0 .199.04.27.118 1.3.972 2.792 1.652 4.374 2a10.56 10.56 0 0 0 4.125.171c.625-.101 1.266-.07 1.89-.218 1.708-.41 3.25-1.094 4-2.82a4.281 4.281 0 0 0-.5-4.465c-.476-.575-1-1.11-1.562-1.598-.77-.746-1.64-1.375-2.5-2.05-.656-.536-1.351-1-2.05-1.5a17.91 17.91 0 0 1-3.36-3.071 15.324 15.324 0 0 1-2.871-4.946 12.602 12.602 0 0 1-.79-3.75c0-.546 0-.585.571-.585Zm0 0"/><path style="stroke:none;fill-rule:nonzero;fill:#010101;fill-opacity:1" d="M22.375 11.93c-1.137-.121-1.29.156-1.29 1.3 0 6.665-.03 13.325 0 20a3.304 3.304 0 0 1-1.222 2.883c-2.293 1.953-4.449 4.07-6.652 6.125-.25.242-.402.274-.625-.054a25.867 25.867 0 0 1-2.246-3.559 17.176 17.176 0 0 1-1.067-3.148c-.222-1.18-.3-2.38-.234-3.579V13.04c0-.55-.254-.844-.8-.848-1.91-.027-3.813-.027-5.723-.035-.907 0-1.196-.285-1.196-1.187V.684c.02-.582.07-.63.625-.63h28.5c.82 0 1.645-.074 2.465 0-.965.18-1.902.481-2.789.895a12.6 12.6 0 0 0-5 4.246 13.037 13.037 0 0 0-2.371 6.625l-.176.086a.118.118 0 0 0-.105-.035.128.128 0 0 0-.094.059Zm0 0"/><path style="stroke:none;fill-rule:nonzero;fill:#aed12e;fill-opacity:1" d="M22.727 11.836a13.068 13.068 0 0 1 2.367-6.625 12.626 12.626 0 0 1 5-4.246 11.824 11.824 0 0 1 2.8-.895c.31-.175.61.035.922.032h2.77a10.38 10.38 0 0 1 4.27.898c1.05.43 2.035 1.012 2.914 1.73a12.832 12.832 0 0 1 2.324 2.5 14.089 14.089 0 0 1 1.84 3.625c.418 1.192.656 2.442.71 3.704v.695c.032.8-.124 1-.94 1.031-1.43.07-2.86.074-4.278.184-1.5.117-3.031.054-4.535.23a.694.694 0 0 1-.805-.5c-.172-.55-.39-1.086-.645-1.605a1.675 1.675 0 0 0-1.601-.774c-.79.086-1.582.117-2.375.09H24.03a4.869 4.869 0 0 1-1.304-.074ZM22.375 11.93a.136.136 0 0 1 .176 0 .103.103 0 0 1-.09.05.102.102 0 0 1-.086-.05Zm0 0"/></svg>