<svg xmlns="http://www.w3.org/2000/svg" width="160" height="50"><path style="stroke:none;fill-rule:nonzero;fill:#afd12f;fill-opacity:1" d="M139.93 13.29h5.582c.367 0 .547.062.648.491a4.557 4.557 0 0 0 1.36 2 27.062 27.062 0 0 0 4.62 3.649A18.228 18.228 0 0 1 157 24a12.6 12.6 0 0 1 2.54 9.21A17.49 17.49 0 0 1 157.44 40 19.212 19.212 0 0 1 155 43.398a17.986 17.986 0 0 1-2.898 2.66 23.032 23.032 0 0 1-3.883 2.25 26.065 26.065 0 0 1-4.578 1.41c-.657.157-1.328.25-2 .282a23.601 23.601 0 0 1-7.102-.578 20.502 20.502 0 0 1-8.75-4.75c-.309-.281-.57-.621-.89-.89-.32-.27-.208-.41 0-.61.73-.703 1.453-1.402 2.19-2.094 1.7-1.59 3.4-3.168 5.09-4.77.29-.269.47-.32.81-.07a11.455 11.455 0 0 0 4.34 1.953c1.316.286 2.667.344 4 .18a14.352 14.352 0 0 0 3.171-.601 4.519 4.519 0 0 0 3-5.52 5.55 5.55 0 0 0-1.71-2.512 72.916 72.916 0 0 0-6.08-4.816 16.022 16.022 0 0 1-4.89-6.344A13.7 13.7 0 0 1 133.73 14c0-.64 0-.66.61-.66Zm0 0"/><path style="stroke:none;fill-rule:nonzero;fill:#010101;fill-opacity:1" d="M133.66 11.828c-.238.203-.52.113-.789.113-.57 0-.812.18-.84.75V34.34c.016.437-.172.86-.511 1.14-2.47 2.25-4.918 4.52-7.38 6.782-.199.18-.35.328-.581 0a20.386 20.386 0 0 1-2.848-5 14.99 14.99 0 0 1-.762-5.102V13.05c0-.59-.289-.878-.93-.89h-5.68c-.82 0-1.128-.308-1.128-1.129V.75c0-.66 0-.66.648-.66h30.563c-.07.21-.274.18-.422.219-.668.18-1.32.414-1.95.703a12.52 12.52 0 0 0-6.312 6.508 11.009 11.009 0 0 0-1.078 4.308ZM18.121 27.45a4.006 4.006 0 0 1-3.191 1.76 34.952 34.952 0 0 1-5.93 0 5.963 5.963 0 0 1-.941-.21c-.09.48-.16 1-.29 1.422a5.09 5.09 0 0 1-4.257 3.758c-.938.156-1.883.215-2.832.18-.2 0-.309 0-.309-.282v-2.18c0-.238.11-.257.3-.257.641.02 1.29-.008 1.93-.082a2.925 2.925 0 0 0 2.028-.98c.52-.583.789-1.349.742-2.13v-6c0-.418.16-.52.508-.52h1.82c.281 0 .352.09.34.352v2.328c0 1.422.54 1.95 2 1.95h4a2.95 2.95 0 0 0 1.43-.27.784.784 0 0 0 .496-.508.805.805 0 0 0-.113-.703 8.385 8.385 0 0 0-1.122-1.5c-1.058-1.207-2.109-2.406-3.19-3.61A2.704 2.704 0 0 1 10.761 18c-.051-.895.5-1.71 1.347-2 2.47-.852 4.95-1.64 7.493-2.48v2.558c0 .262-.18.274-.364.332l-5.34 1.73-.199.122c1.242 1.43 2.473 2.867 3.711 4.289.871 1 1.73 2 2.621 3a2.704 2.704 0 0 0 2.418 1c.82-.09 1.653.078 2.473-.09a1.554 1.554 0 0 0 1.438-1.762v-2.64c0-.34.07-.48.44-.457h1.829c.32 0 .441.07.43.418v2.832c-.055.437.086.878.386 1.203.301.32.735.492 1.176.465 1.098.054 2.2.054 3.3 0 1.29-.06 1.798-.649 1.798-1.95v-2.539c0-.312.062-.453.41-.43h1.883c.308 0 .41.07.398.387v2.89c-.05.4.067.798.324 1.102.254.305.63.493 1.028.508.886.125 1.789.125 2.68 0a1.442 1.442 0 0 0 1.367-1.637v-2.84c0-.3.062-.421.39-.41h1.88c.35 0 .472.07.452.438v2.89A1.63 1.63 0 0 0 49 26.41c.43-.237.68-.702.648-1.19v-3.14c0-.329.063-.477.442-.458h1.879c.293 0 .37.09.37.379v3.09c-.046.41.099.824.4 1.11.296.288.71.421 1.12.359.782 0 1.172-.309 1.2-1.118a36.36 36.36 0 0 0 0-3.691c0-.379.09-.5.48-.48h1.871c.168 0 .34 0 .34.242.066 1.55.035 3.11-.102 4.66-.41 2.598-2.289 3.297-4.359 3.09a3.245 3.245 0 0 1-2.09-.942c-.11-.12-.187-.21-.34 0-1.078 1.301-4.46 1.38-5.59 0-.128-.172-.218-.16-.359 0a4.007 4.007 0 0 1-2.441 1 12.92 12.92 0 0 1-3.34-.058 3.607 3.607 0 0 1-1.89-.91c-.118-.114-.2-.262-.41-.082-.806.636-1.802.988-2.829 1a20.964 20.964 0 0 1-3.898-.051 3.757 3.757 0 0 1-2.133-1c-.11-.11-.188-.219-.36-.059a4.63 4.63 0 0 1-2.738 1.059 19.398 19.398 0 0 1-3.5 0 4.707 4.707 0 0 1-3.25-1.77Zm0 0"/><path style="stroke:none;fill-rule:nonzero;fill:#afd12f;fill-opacity:1" d="M133.66 11.828c.059-1.5.43-2.973 1.078-4.328a12.549 12.549 0 0 1 6.313-6.5A12.377 12.377 0 0 1 143 .29c.148 0 .352 0 .422-.22.488-.191 1 .078 1.437.07h2.743c1.93.024 3.824.563 5.476 1.56a12.238 12.238 0 0 1 5 5.35 13.761 13.761 0 0 1 1.492 6c0 1.13.121 1.29-1.32 1.36l-8.512.39a.672.672 0 0 1-.738-.472c-.133-.418-.29-.828-.469-1.226a1.722 1.722 0 0 0-2-1.141c-.91.059-1.82 0-2.742 0h-9.488a1.725 1.725 0 0 1-.64-.133Zm0 0"/><path style="stroke:none;fill-rule:nonzero;fill:#010101;fill-opacity:1" d="M101.281 26.559h4.239a1.321 1.321 0 0 0 1.48-1.34c.059-1.18.059-2.367 0-3.547 0-.293.059-.41.39-.402h1.93c.168 0 .34 0 .328.242.082 1.55.036 3.105-.136 4.648a3.762 3.762 0 0 1-4 3.13h-4.223a5.15 5.15 0 0 1 .402 2.55 2.7 2.7 0 0 1-2.82 2.64c-2.45.09-3.68-1.5-4.312-3.289a6.897 6.897 0 0 1-.34-1.48c0-.32-.14-.441-.5-.43-.906.078-1.82.043-2.719-.101-.691-.168-.691-.168-.809.492a5.256 5.256 0 0 1-5.082 4.59c-.687.058-1.39 0-2.078.078-.36 0-.422-.11-.41-.43v-1.87c0-.33.07-.438.41-.43.54.05 1.078.05 1.617 0 2.082-.32 3-1.329 3-3.438V22.5c0-.41.141-.531.5-.531h1.782c.289 0 .37.082.37.37v2.782c-.01.406.15.8.446 1.082.297.281.695.422 1.106.387h1.93c.25 0 .288-.09.32-.32.097-1.293.406-2.563.91-3.758a3.977 3.977 0 0 1 2.289-2.313 3.268 3.268 0 0 1 2.531.254 3.27 3.27 0 0 1 1.578 1.996 6.01 6.01 0 0 1-.058 3.77c.02.09-.024.203-.07.34Zm-4 0c1.117 0 1.63-.329 1.828-1.207.16-.606.16-1.239 0-1.84-.12-.41-.308-.801-.77-.852-.46-.05-.66.34-.85.68a8.198 8.198 0 0 0-.759 2.488c-.12.742-.128.742.59.73Zm0 2.742h-.25c-.441-.09-.472.14-.383.469.094.476.262.937.5 1.359.282.473.786.77 1.332.781.18.024.36-.031.497-.152a.63.63 0 0 0 .203-.477c.199-1.281-.442-1.972-1.84-1.98ZM77.11 25.281V22.04c0-.277.07-.39.359-.379h2c.293 0 .332.102.332.352-.07 2.18-.121 4.347-.18 6.527a5.252 5.252 0 0 1-5 5.54c-1.644.265-3.324.198-4.941-.188A5.279 5.279 0 0 1 65.59 29c-.14-1.648 0-3.309-.07-5 0-.27.12-.3.34-.3h2c.3 0 .359.09.35.37v3.551c0 2.5 1 3.617 3.509 3.8.96.095 1.93.056 2.883-.12a2.695 2.695 0 0 0 2.469-2.95c.05-1.011.038-2.042.038-3.07ZM62 22.05v6.778c0 .352 0 .512-.46.48-.556-.038-1.114-.038-1.669 0-.383 0-.473-.078-.473-.468V15.219c0-.399.122-.469.48-.45a14.92 14.92 0 0 0 1.673 0c.36 0 .449.083.449.442v6.84ZM83.89 22.05v6.79c0 .379-.09.488-.468.469a19.35 19.35 0 0 0-1.781 0c-.27 0-.332-.09-.332-.348V15.129c0-.277.07-.367.363-.36H83.5c.328 0 .39.102.379.391 0 2.3.012 4.602.012 6.89Zm0 0"/><path style="stroke:none;fill-rule:nonzero;fill:#010101;fill-opacity:1" d="M72.55 23.45a3.698 3.698 0 0 1-1.8-1.75.463.463 0 0 1 .14-.36c.4-.41.79-.828 1.212-1.219a.562.562 0 0 1 .41-.18c.152 0 .3.067.41.18.387.367.766.746 1.137 1.14a.534.534 0 0 1 .082.739 9.377 9.377 0 0 1-1.36 1.34c-.062.09-.18.09-.23.11ZM27.27 31.23A4.07 4.07 0 0 1 29 33a.382.382 0 0 1-.078.23 6.325 6.325 0 0 1-1.422 1.41c-.262.18-.488 0-.68-.16-.37-.34-.718-.71-1.07-1.07-.2-.191-.3-.441-.102-.672A8.55 8.55 0 0 1 27 31.328c.102-.058.191-.129.27-.098ZM104.7 19.29a.525.525 0 0 1-.419-.13c-.422-.41-.851-.82-1.25-1.25a.468.468 0 0 1 0-.691 22.4 22.4 0 0 1 1.18-1.18.54.54 0 0 1 .402-.176c.157 0 .301.063.407.176.37.371.742.742 1.101 1.121.106.086.176.211.188.352a.497.497 0 0 1-.118.379c-.41.449-.851.87-1.28 1.289a.44.44 0 0 1-.212.11ZM108.441 19.29a.434.434 0 0 1-.261-.13c-.43-.398-.852-.82-1.258-1.238a.495.495 0 0 1-.149-.348.48.48 0 0 1 .149-.344c.379-.41.758-.808 1.168-1.19a.576.576 0 0 1 .82 0c.38.358.75.73 1.11 1.12a.544.544 0 0 1 .168.39.55.55 0 0 1-.168.391c-.391.43-.829.829-1.25 1.239-.032.101-.149.101-.329.11ZM25.11 33a.62.62 0 0 1-.231.469l-1.05 1a.513.513 0 0 1-.403.187.527.527 0 0 1-.406-.187L21.87 33.32a.518.518 0 0 1 0-.77c.39-.421.8-.82 1.219-1.21.082-.09.2-.137.32-.137.121 0 .238.047.32.137.43.41.848.832 1.258 1.25.106.11.149.262.121.41ZM34.879 32.512A3.775 3.775 0 0 1 36.57 30.8a.478.478 0 0 1 .36.148c.39.38.78.762 1.148 1.153.102.093.16.226.16.363 0 .137-.058.27-.16.363-.379.402-.777.793-1.168 1.184a.435.435 0 0 1-.64 0 30.9 30.9 0 0 1-1.301-1.282.632.632 0 0 1-.09-.218ZM36.25 35.5a.522.522 0 0 1-.121.46c-.39.392-.777.79-1.188 1.169a.489.489 0 0 1-.73 0c-.39-.367-.762-.758-1.14-1.149a.472.472 0 0 1 0-.718c.37-.39.757-.774 1.148-1.14a.487.487 0 0 1 .316-.208.481.481 0 0 1 .363.086c.477.379.91.809 1.293 1.281a.52.52 0 0 1 .059.219ZM34.352 32.45c0 .109 0 .23-.102.288-.43.453-.86.903-1.32 1.332-.2.192-.45.09-.64-.082l-1.15-1.148a.482.482 0 0 1 0-.75c.38-.371.739-.75 1.122-1.11a.461.461 0 0 1 .32-.19c.129-.02.258.019.36.1.464.391.898.825 1.288 1.29.051.086.094.175.122.27Zm0 0"/></svg>